<svg width="1136" height="923" viewBox="0 0 1136 923" fill="none" xmlns="http://www.w3.org/2000/svg">
<path d="M301.837 117.884L258.837 1.88419L430.337 141.384L458.837 222.384L470.337 258.884L498.837 342.384L509.837 376.884L532.337 438.884H543.837L682.337 152.384L864.837 0.384186L532.337 689.884L349.837 248.384L317.337 158.884L301.837 117.884Z" stroke="#D4D7DC"/>
<path d="M458.337 220.884L301.337 115.884L258.837 1.88419L430.337 141.384L458.337 220.884Z" stroke="#D4D7DC"/>
<path d="M470.337 258.884L317.337 158.884L349.337 247.884L498.837 342.884L470.337 258.884Z" stroke="#D4D7DC"/>
<path d="M366.337 288.384L509.837 377.384" stroke="#D4D7DC"/>
<path d="M24.8371 784.384H0.837097L74.3371 920.884H85.3371L159.337 783.884H136.337L80.8371 888.384L24.8371 784.384Z" stroke="#D4D7DC"/>
<path d="M311.837 784.384L238.337 920.884H261.837L319.837 814.884L375.837 920.384H398.837L325.837 784.384H311.837Z" stroke="#D4D7DC"/>
<path d="M524.337 784.884H505.337V920.884H620.337V900.884H524.337V784.884Z" stroke="#D4D7DC"/>
<path d="M1000.84 783.884H978.337L1050.84 920.884H1060.34L1134.34 783.884H1111.34L1055.84 887.884L1000.84 783.884Z" stroke="#D4D7DC"/>
<rect x="741.337" y="783.884" width="130" height="20" fill="#34E0E0"/>
<rect x="741.337" y="842.884" width="130" height="20" fill="#34E0E0"/>
<rect x="741.337" y="902.884" width="130" height="20" fill="#34E0E0"/>
</svg>
